<svg width="106" height="19" viewBox="0 0 106 19" fill="none" xmlns="http://www.w3.org/2000/svg">
<path d="M11.0441 17.4725H0.307085V15.6713L5.62623 9.96581C6.39395 9.12454 6.93866 8.42349 7.26036 7.86264C7.58938 7.2946 7.75389 6.72657 7.75389 6.15853C7.75389 5.41073 7.5382 4.80674 7.10682 4.34656C6.68275 3.88638 6.1088 3.65629 5.38495 3.65629C4.52219 3.65629 3.85318 3.91514 3.37793 4.43285C2.90268 4.95055 2.66506 5.6588 2.66506 6.55759H0C0 5.60128 0.219346 4.74203 0.658039 3.97986C1.10404 3.21049 1.73649 2.61369 2.55538 2.18946C3.38159 1.76523 4.33209 1.55312 5.40689 1.55312C6.95693 1.55312 8.17796 1.9378 9.06997 2.70717C9.96929 3.46934 10.419 4.52632 10.419 5.87811C10.419 6.66185 10.1923 7.48515 9.73898 8.34799C9.29297 9.20364 8.55816 10.1779 7.53455 11.2709L3.63018 15.3801H11.0441V17.4725Z" fill="white"/>
<path d="M22.0882 11.8748H24.0733V13.978H22.0882V17.4725H19.4231V13.978H12.5247L12.4479 12.3818L19.3354 1.76883H22.0882V11.8748ZM15.2446 11.8748H19.4231V5.31726L19.2257 5.6624L15.2446 11.8748Z" fill="white"/>
<path d="M50.0809 1.42394C49.4325 0.910253 48.6181 0.651084 47.7913 0.695345C46.9645 0.739606 46.1825 1.08424 45.593 1.66419C45.0083 2.25129 44.662 3.03341 44.6208 3.85995C44.5796 4.68649 44.8464 5.49902 45.3698 6.1411C46.3123 4.04916 47.9873 2.37197 50.0809 1.42394Z" fill="#CBE725"/>
<path d="M54.4513 4.98085C54.4513 4.84098 54.3956 4.70684 54.2964 4.60794C54.1973 4.50903 54.0628 4.45347 53.9226 4.45347C53.7824 4.45347 53.6479 4.50903 53.5488 4.60794C53.4496 4.70684 53.3939 4.84098 53.3939 4.98085V10.2547L57.5411 12.3056C57.6673 12.367 57.8128 12.3759 57.9455 12.3303C58.0783 12.2847 58.1874 12.1883 58.249 12.0625C58.3105 11.9366 58.3194 11.7915 58.2737 11.659C58.2279 11.5266 58.1314 11.4177 58.0052 11.3563L54.4454 9.5984L54.4513 4.98085Z" fill="#CBE725"/>
<path d="M59.8203 15.6926C60.8963 14.6053 61.6438 13.2378 61.9772 11.7466C62.3107 10.2554 62.2167 8.70073 61.7059 7.26033C61.2966 7.33253 60.8787 7.34241 60.4665 7.28963C61.0855 8.79282 61.1635 10.4635 60.6872 12.0176C60.2109 13.5716 59.2097 14.9132 57.8539 15.8141C56.498 16.7149 54.8712 17.1195 53.2501 16.9591C51.629 16.7986 50.1137 16.083 48.9617 14.9339C47.8098 13.7848 47.0924 12.2731 46.9316 10.656C46.7707 9.03883 47.1763 7.41603 48.0794 6.06351C48.9825 4.71099 50.3273 3.71224 51.8852 3.23711C53.4431 2.76198 55.1179 2.83978 56.6247 3.4573C56.6024 3.28236 56.5907 3.10625 56.5895 2.92991C56.5918 2.69222 56.6134 2.4551 56.6541 2.22088C54.8992 1.61898 52.9918 1.62687 51.2419 2.24327C49.4921 2.85967 48.0026 4.04833 47.0157 5.61605C46.0288 7.18378 45.6024 9.03839 45.8059 10.8784C46.0094 12.7185 46.8308 14.4358 48.1365 15.7512L46.6386 17.2455C46.5288 17.3574 46.468 17.5082 46.4696 17.6648C46.4713 17.8214 46.5352 17.9709 46.6474 18.0805C46.7596 18.1901 46.9108 18.2507 47.0678 18.2491C47.2247 18.2474 47.3746 18.1836 47.4845 18.0717L49.047 16.513C50.4759 17.5917 52.2209 18.1715 54.0128 18.163C55.8047 18.1545 57.5441 17.5582 58.9627 16.4661L60.5722 18.0717C60.6846 18.1677 60.8291 18.2179 60.977 18.2122C61.1248 18.2065 61.265 18.1453 61.3697 18.041C61.4743 17.9366 61.5356 17.7967 61.5413 17.6493C61.547 17.5018 61.4967 17.3576 61.4005 17.2455L59.8203 15.6926Z" fill="#CBE725"/>
<path d="M60.9951 5.85983C62.6173 5.85983 63.9322 4.54806 63.9322 2.92991C63.9322 1.31177 62.6173 0 60.9951 0C59.373 0 58.058 1.31177 58.058 2.92991C58.058 4.54806 59.373 5.85983 60.9951 5.85983Z" fill="#CBE725"/>
<path d="M38.8171 13.4808L41.2661 1.52743H44.0103L40.3368 17.4071H37.6909L34.6625 5.81365L31.5684 17.4071H28.9116L25.2381 1.52743H27.9823L30.4532 13.459L33.4926 1.52743H35.8104L38.8171 13.4808Z" fill="#CBE725"/>
<path d="M71.987 11.2887H68.9039V17.4071H66.1378V1.52743H71.7355C73.5723 1.52743 74.99 1.93824 75.9885 2.75986C76.9871 3.58147 77.4864 4.77027 77.4864 6.32625C77.4864 7.3878 77.2276 8.27849 76.7101 8.99831C76.1999 9.71086 75.4856 10.2598 74.5672 10.6452L78.1424 17.2654V17.4071H75.1795L71.987 11.2887ZM68.9039 9.07466H71.7465C72.6794 9.07466 73.4083 8.84199 73.9331 8.37665C74.4579 7.90404 74.7203 7.26056 74.7203 6.44622C74.7203 5.59552 74.4761 4.9375 73.9878 4.47216C73.5067 4.00682 72.7851 3.76688 71.823 3.75234H68.9039V9.07466Z" fill="#CBE725"/>
<path d="M83.8312 15.204H91.058V17.4071H81.0651V1.52743H83.8312V15.204Z" fill="#CBE725"/>
<path d="M94.1266 17.4071V1.52743H98.8279C100.235 1.52743 101.481 1.84008 102.567 2.46538C103.66 3.09068 104.506 3.97774 105.103 5.12654C105.701 6.27535 106 7.59139 106 9.07466V9.87082C106 11.3759 105.698 12.6992 105.093 13.8407C104.495 14.9823 103.638 15.8621 102.523 16.4801C101.415 17.0981 100.143 17.4071 98.7076 17.4071H94.1266ZM96.8927 3.75234V15.204H98.6967C100.147 15.204 101.259 14.7533 102.031 13.8517C102.811 12.9428 103.208 11.6413 103.223 9.94717V9.06375C103.223 7.34054 102.848 6.0245 102.097 5.11564C101.346 4.20677 100.256 3.75234 98.8279 3.75234H96.8927Z" fill="#CBE725"/>
</svg>
