<svg width="175" height="31" viewBox="0 0 175 31" fill="none" xmlns="http://www.w3.org/2000/svg">
<path d="M18.2332 28.8462H0.50698V25.8725L9.28859 16.453C10.556 15.0641 11.4553 13.9067 11.9864 12.9808C12.5296 12.043 12.8012 11.1052 12.8012 10.1674C12.8012 8.93281 12.4451 7.93566 11.733 7.17593C11.0328 6.41619 10.0853 6.03632 8.89025 6.03632C7.46588 6.03632 6.36139 6.46367 5.57678 7.31838C4.79217 8.17308 4.39986 9.34235 4.39986 10.8262H0C0 9.24739 0.362128 7.82882 1.08639 6.57051C1.82271 5.30033 2.86685 4.31505 4.2188 3.61467C5.58281 2.91429 7.15204 2.5641 8.92646 2.5641C11.4855 2.5641 13.5014 3.19919 14.974 4.46937C16.4587 5.72768 17.2011 7.4727 17.2011 9.70442C17.2011 10.9983 16.8269 12.3575 16.0785 13.7821C15.3422 15.1947 14.129 16.8032 12.4391 18.6075L5.99322 25.3917H18.2332V28.8462Z" fill="white"/>
<path d="M36.4663 19.6047H39.7436V23.0769H36.4663V28.8462H32.0665V23.0769H20.6775L20.5508 20.4416L31.9216 2.92023H36.4663V19.6047ZM25.1679 19.6047H32.0665V8.77849L31.7406 9.34829L25.1679 19.6047Z" fill="white"/>
<path d="M82.6807 2.35084C81.6103 1.50278 80.2657 1.0749 78.9007 1.14798C77.5357 1.22105 76.2447 1.79001 75.2714 2.74749C74.3062 3.71676 73.7345 5.00798 73.6665 6.37256C73.5984 7.73713 74.0388 9.07857 74.9029 10.1386C76.459 6.68494 79.2244 3.91599 82.6807 2.35084Z" fill="#CBE725"/>
<path d="M89.896 8.22311C89.896 7.99219 89.804 7.77073 89.6403 7.60744C89.4767 7.44416 89.2546 7.35243 89.0232 7.35243C88.7917 7.35243 88.5697 7.44416 88.406 7.60744C88.2423 7.77073 88.1503 7.99219 88.1503 8.22311V16.9299L94.9971 20.3159C95.2054 20.4173 95.4456 20.4319 95.6648 20.3566C95.8839 20.2813 96.0641 20.1223 96.1657 19.9144C96.2673 19.7066 96.282 19.467 96.2065 19.2484C96.131 19.0298 95.9716 18.85 95.7633 18.7487L89.8863 15.8464L89.896 8.22311Z" fill="#CBE725"/>
<path d="M98.7599 25.9076C100.536 24.1126 101.77 21.8549 102.321 19.3931C102.871 16.9312 102.716 14.3644 101.873 11.9864C101.197 12.1056 100.507 12.1219 99.8267 12.0348C100.849 14.5164 100.977 17.2746 100.191 19.8403C99.4048 22.406 97.7519 24.6208 95.5135 26.1081C93.275 27.5954 90.5893 28.2634 87.9129 27.9985C85.2366 27.7336 82.7348 26.5521 80.8331 24.655C78.9313 22.7579 77.7469 20.2622 77.4814 17.5924C77.2158 14.9226 77.8854 12.2434 79.3764 10.0105C80.8673 7.77757 83.0875 6.1287 85.6595 5.34429C88.2315 4.55987 90.9965 4.68832 93.4842 5.70781C93.4474 5.419 93.428 5.12825 93.426 4.83712C93.4299 4.4447 93.4656 4.05323 93.5327 3.66654C90.6354 2.67284 87.4864 2.68587 84.5975 3.70351C81.7086 4.72115 79.2496 6.68356 77.6203 9.27179C75.991 11.86 75.2871 14.9219 75.623 17.9597C75.9589 20.9975 77.315 23.8327 79.4707 26.0044L76.9977 28.4713C76.8163 28.656 76.716 28.9051 76.7187 29.1636C76.7215 29.4221 76.827 29.669 77.0122 29.8499C77.1974 30.0308 77.447 30.1309 77.7062 30.1282C77.9654 30.1254 78.2129 30.0201 78.3942 29.8354L80.9738 27.262C83.3329 29.0428 86.2137 30 89.1721 29.9861C92.1304 29.9721 95.002 28.9877 97.344 27.1846L100.001 29.8354C100.187 29.9939 100.425 30.0767 100.67 30.0673C100.914 30.0579 101.145 29.9569 101.318 29.7847C101.491 29.6124 101.592 29.3814 101.601 29.1379C101.611 28.8944 101.528 28.6564 101.369 28.4713L98.7599 25.9076Z" fill="#CBE725"/>
<path d="M100.7 9.67425C103.378 9.67425 105.549 7.50859 105.549 4.83712C105.549 2.16565 103.378 0 100.7 0C98.0215 0 95.8505 2.16565 95.8505 4.83712C95.8505 7.50859 98.0215 9.67425 100.7 9.67425Z" fill="#CBE725"/>
<path d="M64.0848 22.2561L68.128 2.52171H72.6585L66.5937 28.7382H62.2256L57.2258 9.598L52.1176 28.7382H47.7315L41.6667 2.52171H46.1972L50.2765 22.2201L55.2944 2.52171H59.121L64.0848 22.2561Z" fill="#CBE725"/>
<path d="M118.846 18.6369H113.756V28.7382H109.19V2.52171H118.431C121.464 2.52171 123.804 3.19993 125.453 4.55637C127.101 5.91281 127.926 7.87544 127.926 10.4443C127.926 12.1968 127.498 13.6673 126.644 14.8557C125.802 16.0321 124.622 16.9384 123.106 17.5746L129.009 28.5041V28.7382H124.117L118.846 18.6369ZM113.756 14.9817H118.449C119.99 14.9817 121.193 14.5976 122.059 13.8294C122.926 13.0491 123.359 11.9868 123.359 10.6423C123.359 9.23788 122.956 8.15153 122.15 7.38328C121.355 6.61503 120.164 6.2189 118.576 6.1949H113.756V14.9817Z" fill="#CBE725"/>
<path d="M138.401 25.101H150.332V28.7382H133.834V2.52171H138.401V25.101Z" fill="#CBE725"/>
<path d="M155.398 28.7382V2.52171H163.159C165.482 2.52171 167.539 3.03787 169.332 4.07021C171.137 5.10254 172.533 6.56702 173.52 8.46363C174.507 10.3602 175 12.533 175 14.9817V16.2962C175 18.781 174.501 20.9657 173.502 22.8503C172.515 24.7349 171.101 26.1874 169.26 27.2077C167.431 28.228 165.331 28.7382 162.961 28.7382H155.398ZM159.964 6.1949V25.101H162.943C165.337 25.101 167.172 24.3568 168.448 22.8683C169.735 21.3678 170.391 19.2191 170.415 16.4222V14.9637C170.415 12.1188 169.796 9.94611 168.556 8.44563C167.317 6.94514 165.518 6.1949 163.159 6.1949H159.964Z" fill="#CBE725"/>
</svg>
