<svg width="25" height="17" viewBox="0 0 25 17" fill="none" xmlns="http://www.w3.org/2000/svg">
<path d="M11.0441 16.4725H0.307085V14.6713L5.62623 8.96581C6.39395 8.12454 6.93866 7.42349 7.26036 6.86264C7.58938 6.2946 7.75389 5.72657 7.75389 5.15853C7.75389 4.41073 7.5382 3.80674 7.10682 3.34656C6.68275 2.88638 6.1088 2.65629 5.38495 2.65629C4.52219 2.65629 3.85318 2.91514 3.37793 3.43285C2.90268 3.95055 2.66506 4.6588 2.66506 5.55759H0C0 4.60128 0.219346 3.74203 0.658039 2.97986C1.10404 2.21049 1.73649 1.61369 2.55538 1.18946C3.38159 0.765231 4.33209 0.553116 5.40689 0.553116C6.95693 0.553116 8.17796 0.937799 9.06997 1.70717C9.96929 2.46934 10.419 3.52632 10.419 4.87811C10.419 5.66185 10.1923 6.48515 9.73898 7.34799C9.29297 8.20364 8.55816 9.17793 7.53455 10.2709L3.63018 14.3801H11.0441V16.4725Z" fill="black"/>
<path d="M22.0882 10.8748H24.0733V12.978H22.0882V16.4725H19.4231V12.978H12.5247L12.4479 11.3818L19.3354 0.768826H22.0882V10.8748ZM15.2446 10.8748H19.4231V4.31726L19.2257 4.6624L15.2446 10.8748Z" fill="black"/>
</svg>
